<svg xmlns="http://www.w3.org/2000/svg" version="1.1" xmlns:xlink="http://www.w3.org/1999/xlink" viewBox="0 0 200 200"><rect width="200" height="200" fill="url('#gradient')"></rect><defs><linearGradient id="gradient" gradientTransform="rotate(0 0.5 0.5)"><stop offset="0%" stop-color="#f35501"></stop><stop offset="100%" stop-color="#f35501"></stop></linearGradient></defs><g><g fill="#f0f5f6" transform="matrix(5.10522172658095,0,0,5.10522172658095,-0.4733834875690519,136.60240884278898)" stroke="#1e0a04" stroke-width="0"><path d="M8.87 0L6.36-5.02L4.50-5.02L4.50 0L1.07 0L1.07-14.22L6.67-14.22Q9.20-14.22 10.63-13.10Q12.05-11.97 12.05-9.92L12.05-9.92Q12.05-8.44 11.45-7.46Q10.85-6.48 9.57-5.88L9.57-5.88L12.54-0.15L12.54 0L8.87 0ZM4.50-11.57L4.50-7.67L6.67-7.67Q7.65-7.67 8.14-8.18Q8.63-8.69 8.63-9.61Q8.63-10.53 8.13-11.05Q7.64-11.57 6.67-11.57L6.67-11.57L4.50-11.57ZM19.85-8.22L19.85-6.51L13.72-6.51L13.72-7.95L16.51-10.42Q17.00-10.85 17.24-11.26Q17.48-11.68 17.48-11.88L17.48-11.88Q17.48-12.62 16.65-12.62L16.65-12.62Q16.23-12.62 15.99-12.32Q15.74-12.03 15.74-11.61L15.74-11.61L13.54-11.61Q13.54-12.76 14.38-13.55Q15.21-14.34 16.54-14.34L16.54-14.34Q18.05-14.34 18.86-13.70Q19.67-13.07 19.67-11.88L19.67-11.88Q19.67-11.14 19.25-10.53Q18.84-9.92 17.42-8.89L17.42-8.89L16.63-8.22L19.85-8.22ZM30.58-8.30L30.58-5.66L25.05-5.66L25.05 0L21.62 0L21.62-14.22L31.13-14.22L31.13-11.57L25.05-11.57L25.05-8.30L30.58-8.30ZM38.29-8.22L38.29-6.51L32.16-6.51L32.16-7.95L34.95-10.42Q35.44-10.85 35.68-11.26Q35.92-11.68 35.92-11.88L35.92-11.88Q35.92-12.62 35.09-12.62L35.09-12.62Q34.67-12.62 34.42-12.32Q34.18-12.03 34.18-11.61L34.18-11.61L31.98-11.61Q31.98-12.76 32.82-13.55Q33.65-14.34 34.98-14.34L34.98-14.34Q36.48-14.34 37.29-13.70Q38.11-13.07 38.11-11.88L38.11-11.88Q38.11-11.14 37.69-10.53Q37.28-9.92 35.86-8.89L35.86-8.89L35.07-8.22L38.29-8.22Z"></path></g></g></svg>